<?xml version="1.0" encoding="UTF-8"?>
<svg id="Layer_1" data-name="Layer 1" xmlns="http://www.w3.org/2000/svg" viewBox="0 0 895.56 895.57">
  <defs>
    <style>
      .cls-1 {
        fill: #e7dda2;
      }

      .cls-2 {
        fill: #cdbb85;
      }

      .cls-3 {
        fill: #bca473;
      }

      .cls-4 {
        fill: #1f2020;
      }

      .cls-5 {
        fill: #a28357;
      }

      .cls-6 {
        fill: #272626;
      }

      .cls-7 {
        stroke: #847e62;
      }

      .cls-7, .cls-8, .cls-9, .cls-10, .cls-11, .cls-12, .cls-13, .cls-14, .cls-15, .cls-16, .cls-17, .cls-18, .cls-19, .cls-20, .cls-21, .cls-22, .cls-23, .cls-24 {
        fill: none;
        stroke-width: 2px;
      }

      .cls-8 {
        stroke: #655540;
      }

      .cls-9 {
        stroke: #b79e6d;
      }

      .cls-10 {
        stroke: #8c8769;
      }

      .cls-11 {
        stroke: #695944;
      }

      .cls-12 {
        stroke: #c4b07d;
      }

      .cls-13 {
        stroke: #72664e;
      }

      .cls-14 {
        stroke: #584833;
      }

      .cls-15 {
        stroke: #61513c;
      }

      .cls-16 {
        stroke: #6e6549;
      }

      .cls-17 {
        stroke: #6e634b;
      }

      .cls-18 {
        stroke: #878265;
      }

      .cls-19 {
        stroke: #776e53;
      }

      .cls-20 {
        stroke: #766a52;
      }

      .cls-21 {
        stroke: #7b7256;
      }

      .cls-22 {
        stroke: #ae9366;
      }

      .cls-23 {
        stroke: #d9cc93;
      }

      .cls-24 {
        stroke: #d0c18c;
      }
    </style>
  </defs>
  <circle class="cls-4" cx="447.46" cy="440.19" r="423.87"/>
  <g>
    <path class="cls-14" d="m8.77,362.33c-26.89,148.82,16.54,292.77,121.65,399.86" vector-effect="non-scaling-stroke"/>
    <path class="cls-16" d="m130.43,762.18c66.33,66.71,145.96,108.57,238.89,125.56" vector-effect="non-scaling-stroke"/>
    <path class="cls-23" d="m393.55,884.89l-1.43,6.19" vector-effect="non-scaling-stroke"/>
    <path class="cls-7" d="m411.37,2.27c-58.33,4.9-113.49,20.62-165.47,47.16" vector-effect="non-scaling-stroke"/>
    <path class="cls-17" d="m245.89,49.43c-67.78,34.29-123.14,82.76-166.07,145.4" vector-effect="non-scaling-stroke"/>
    <path class="cls-15" d="m79.82,194.83c-35.98,49.12-58.3,107.28-71.05,167.5" vector-effect="non-scaling-stroke"/>
    <path class="cls-19" d="m369.31,887.74l22.81,3.34" vector-effect="non-scaling-stroke"/>
    <path class="cls-7" d="m392.12,891.08c93.72,11.35,181.9-5.01,264.55-49.07" vector-effect="non-scaling-stroke"/>
    <path class="cls-17" d="m656.67,842.01c52.02-26.8,96.45-62.91,133.29-108.34" vector-effect="non-scaling-stroke"/>
    <path class="cls-9" d="m134.1,757.08c-2.62.8-3.85,2.5-3.68,5.1" vector-effect="non-scaling-stroke"/>
    <path class="cls-7" d="m523.27,30.3c-89.73-15.11-175.59-3.67-257.59,34.33" vector-effect="non-scaling-stroke"/>
    <path class="cls-17" d="m265.68,64.62c-63.71,30.64-116.56,74.28-158.55,130.92" vector-effect="non-scaling-stroke"/>
    <path class="cls-15" d="m107.13,195.54C2.93,334.82-3.23,520.53,85.52,668.81" vector-effect="non-scaling-stroke"/>
    <path class="cls-17" d="m85.52,668.81c35.33,56.79,81.23,103.08,137.68,138.87" vector-effect="non-scaling-stroke"/>
    <path class="cls-7" d="m223.2,807.69c134.94,84.13,303.75,85.25,440.48,4.99" vector-effect="non-scaling-stroke"/>
    <path class="cls-17" d="m663.68,812.68c31.76-18.74,60.55-41.27,86.36-67.6" vector-effect="non-scaling-stroke"/>
    <path class="cls-15" d="m750.04,745.08c48.62-49.53,83.07-107.5,103.35-173.91" vector-effect="non-scaling-stroke"/>
    <path class="cls-15" d="m865.28,587.56c-17.49,53.77-44.77,101.96-81.85,144.58" vector-effect="non-scaling-stroke"/>
    <path class="cls-17" d="m783.42,732.13c-38.09,45.26-83.47,81.37-136.14,108.34" vector-effect="non-scaling-stroke"/>
    <path class="cls-7" d="m647.29,840.47c-79.83,39.84-164.41,54.64-253.74,44.42" vector-effect="non-scaling-stroke"/>
    <path class="cls-19" d="m393.55,884.89c-101.19-13.46-187.67-56.06-259.44-127.81" vector-effect="non-scaling-stroke"/>
    <path class="cls-15" d="m134.1,757.08C-2.97,615.98-31.28,408.54,61.43,235.74c6.47-12.06,15.02-24.43,22.78-36.52" vector-effect="non-scaling-stroke"/>
    <path class="cls-17" d="m84.21,199.22c42.84-61.53,97.52-109.56,164.05-144.09" vector-effect="non-scaling-stroke"/>
    <path class="cls-22" d="m84.21,199.22l-4.39-4.39" vector-effect="non-scaling-stroke"/>
    <path class="cls-24" d="m638.02,43.84l-2.85,5.7" vector-effect="non-scaling-stroke"/>
    <path class="cls-18" d="m635.17,49.54c-30.33-14.37-61.93-25.06-94.8-32.07" vector-effect="non-scaling-stroke"/>
    <path class="cls-7" d="m540.37,17.47C438.27-3.27,340.9,9.29,248.26,55.13" vector-effect="non-scaling-stroke"/>
    <path class="cls-24" d="m248.26,55.13c-3.23-1.29-4.02-3.19-2.37-5.7" vector-effect="non-scaling-stroke"/>
    <path class="cls-18" d="m634.46,41.7C563.62,9.77,489.26-3.37,411.37,2.27" vector-effect="non-scaling-stroke"/>
    <path class="cls-8" d="m891.88,393.69c11.35,106.86-13.17,217.85-75.55,305.77" vector-effect="non-scaling-stroke"/>
    <path class="cls-15" d="m816.33,699.46l-26.37,34.21" vector-effect="non-scaling-stroke"/>
    <path class="cls-22" d="m789.95,733.67c-1.56-2.32-3.73-2.83-6.53-1.54" vector-effect="non-scaling-stroke"/>
    <path class="cls-24" d="m656.67,842.01c.4-6.53-6.33-.4-9.38-1.54" vector-effect="non-scaling-stroke"/>
    <path class="cls-22" d="m750.04,745.08c-.19-3.99-1.89-5.45-5.1-4.39" vector-effect="non-scaling-stroke"/>
    <path class="cls-24" d="m663.68,812.68l-3.68-4.88" vector-effect="non-scaling-stroke"/>
    <path class="cls-22" d="m112.72,198.51c-2.39.08-4.26-.91-5.59-2.97" vector-effect="non-scaling-stroke"/>
    <path class="cls-24" d="m226.05,801.98c-2.93.48-3.88,2.38-2.85,5.7" vector-effect="non-scaling-stroke"/>
    <path class="cls-23" d="m572.45,42.41c-.27,2.49-1.45,4.39-3.56,5.7" vector-effect="non-scaling-stroke"/>
    <path class="cls-18" d="m568.88,48.12l-37.06-9.27" vector-effect="non-scaling-stroke"/>
    <path class="cls-7" d="m531.82,38.85c-90.78-17.79-177.97-7.57-261.58,30.65" vector-effect="non-scaling-stroke"/>
    <path class="cls-24" d="m270.24,69.5c-5.25,1.65-6.77.03-4.56-4.88" vector-effect="non-scaling-stroke"/>
    <path class="cls-22" d="m89.91,663.71l-.74-.26c-1.5-.49-3.11.33-3.6,1.82-.11.32-.15.66-.14,1l.09,2.54" vector-effect="non-scaling-stroke"/>
    <path class="cls-13" d="m635.17,49.54c81.58,39.8,145.96,98.48,193.16,176.05" vector-effect="non-scaling-stroke"/>
    <path class="cls-8" d="m828.33,225.59c63.21,111.56,77.46,240.57,36.95,361.97" vector-effect="non-scaling-stroke"/>
    <path class="cls-8" d="m853.39,571.17c38.06-131.4,16.14-276.12-71.28-383.46" vector-effect="non-scaling-stroke"/>
    <path class="cls-21" d="m782.11,187.7c-54.64-70.21-124.53-118.64-209.66-145.29" vector-effect="non-scaling-stroke"/>
    <path class="cls-18" d="m572.45,42.41l-49.18-12.12" vector-effect="non-scaling-stroke"/>
    <path class="cls-22" d="m832.72,220.49c.72,4.5-.74,6.21-4.39,5.1" vector-effect="non-scaling-stroke"/>
    <path class="cls-11" d="m891.88,393.69c-8.36-61.7-28.08-119.43-59.16-173.2" vector-effect="non-scaling-stroke"/>
    <path class="cls-20" d="m832.72,220.49c-46.84-76.75-112.76-138.76-194.7-176.65" vector-effect="non-scaling-stroke"/>
    <path class="cls-10" d="m638.02,43.84l-3.56-2.14" vector-effect="non-scaling-stroke"/>
    <path class="cls-21" d="m568.88,48.12c84.37,26.5,153.75,74.49,208.12,143.98" vector-effect="non-scaling-stroke"/>
    <path class="cls-8" d="m777.01,192.09c117.32,146.14,118.35,367.35-1.23,513.01" vector-effect="non-scaling-stroke"/>
    <path class="cls-8" d="m763.47,697.21c107.68-134.65,115.95-325.96,20.78-470.31" vector-effect="non-scaling-stroke"/>
    <path class="cls-13" d="m784.25,226.9c-36.51-55.1-83.59-98.78-141.24-131.03" vector-effect="non-scaling-stroke"/>
    <path class="cls-18" d="m643.01,95.87c-35.2-19.73-72.48-33.67-111.85-41.82" vector-effect="non-scaling-stroke"/>
    <path class="cls-9" d="m782.11,187.7c-.3,3.31-2.01,4.77-5.1,4.39" vector-effect="non-scaling-stroke"/>
    <path class="cls-7" d="m531.17,54.05c-62.32-13.25-124.11-11.66-185.37,4.76" vector-effect="non-scaling-stroke"/>
    <path class="cls-19" d="m345.79,58.81c-55.21,13.84-104.87,38.71-148.97,74.61" vector-effect="non-scaling-stroke"/>
    <path class="cls-17" d="m196.83,133.42c-31.97,25.2-59.33,54.7-82.08,88.5" vector-effect="non-scaling-stroke"/>
    <path class="cls-15" d="m114.74,221.92c-82.39,115.81-88.55,266.46-34.01,391.73,24.35,55.94,64.46,105.72,111.1,144.86" vector-effect="non-scaling-stroke"/>
    <path class="cls-19" d="m191.84,758.51c62.4,51.24,133.91,81.18,214.54,89.81" vector-effect="non-scaling-stroke"/>
    <path class="cls-7" d="m406.38,848.31c47.52,5.17,94.32,1.61,140.41-10.69" vector-effect="non-scaling-stroke"/>
    <path class="cls-19" d="m546.79,837.62c65.23-16.29,122.53-47.14,171.89-92.54" vector-effect="non-scaling-stroke"/>
    <path class="cls-15" d="m718.68,745.08c16.21-14.73,31.14-30.69,44.79-47.87" vector-effect="non-scaling-stroke"/>
    <path class="cls-15" d="m775.78,705.11l-30.85,35.58" vector-effect="non-scaling-stroke"/>
    <path class="cls-17" d="m744.94,740.69c-25.64,25.74-53.95,48.11-84.93,67.11" vector-effect="non-scaling-stroke"/>
    <path class="cls-7" d="m660,807.8c-135.79,77.86-300.3,76.32-433.95-5.82" vector-effect="non-scaling-stroke"/>
    <path class="cls-17" d="m226.05,801.98c-55.48-36.11-100.86-82.2-136.14-138.27" vector-effect="non-scaling-stroke"/>
    <path class="cls-15" d="m89.91,663.71C3.7,517.2,10.65,335.61,112.72,198.51" vector-effect="non-scaling-stroke"/>
    <path class="cls-17" d="m112.72,198.51c42.02-55.79,94.53-98.79,157.52-129.01" vector-effect="non-scaling-stroke"/>
    <path class="cls-9" d="m718.68,745.08c1.05-4.26-.89-5.01-5.82-2.25" vector-effect="non-scaling-stroke"/>
    <path class="cls-22" d="m784.25,226.9c-.25,3.59-1.95,4.82-5.1,3.68" vector-effect="non-scaling-stroke"/>
    <path class="cls-24" d="m643.01,95.87l-4.28,4.28" vector-effect="non-scaling-stroke"/>
    <path class="cls-18" d="m638.73,100.15c-78.94-42.39-163.04-56.88-252.32-43.48" vector-effect="non-scaling-stroke"/>
    <path class="cls-7" d="m386.42,56.67l-37.66,7.73" vector-effect="non-scaling-stroke"/>
    <path class="cls-23" d="m348.76,64.4c-1.86-1.44-2.85-3.31-2.97-5.59" vector-effect="non-scaling-stroke"/>
    <path class="cls-12" d="m203.24,136.5l-6.41-3.08" vector-effect="non-scaling-stroke"/>
    <path class="cls-23" d="m416.35,842.61c-6.41-1.67-9.73.23-9.98,5.7" vector-effect="non-scaling-stroke"/>
    <path class="cls-22" d="m119.85,225.59c-3.35,1.08-5.05-.14-5.1-3.68" vector-effect="non-scaling-stroke"/>
    <path class="cls-23" d="m546.79,837.62l-2.85-5.47" vector-effect="non-scaling-stroke"/>
    <path class="cls-9" d="m196.83,754.23l-4.99,4.28" vector-effect="non-scaling-stroke"/>
    <path class="cls-7" d="m391.41,104.91c-36.09,6.01-70.34,17.45-102.75,34.33" vector-effect="non-scaling-stroke"/>
    <path class="cls-17" d="m288.66,139.24c-14.18,6.61-27.44,14.7-39.77,24.26-5.84,4.5-.43,3.28,1.2,2.08,12.81-9.41,26.42-17.44,40.83-24.09" vector-effect="non-scaling-stroke"/>
    <path class="cls-7" d="m290.91,141.49c55.02-16.74,106.14-9.42,153.36,21.98" vector-effect="non-scaling-stroke"/>
    <path class="cls-19" d="m558.08,368.74l-.31,14.31" vector-effect="non-scaling-stroke"/>
    <path class="cls-19" d="m558.02,391.29l.14,109.31c0,1.57,1.28,2.85,2.85,2.85h13.57c1.57,0,2.85-1.28,2.85-2.85l.11-102.64" vector-effect="non-scaling-stroke"/>
    <path class="cls-19" d="m590.87,406.52l-.71,94.77c-.02,1.57,1.25,2.86,2.82,2.88,0,0,.02,0,.03,0h13.57c1.56,0,2.84-1.25,2.85-2.79l.57-34.41" vector-effect="non-scaling-stroke"/>
    <path class="cls-17" d="m656.67,502.74l12,.83" vector-effect="non-scaling-stroke"/>
    <path class="cls-15" d="m797.08,635.31c-22.6,40.1-50.67,75.94-84.22,107.51" vector-effect="non-scaling-stroke"/>
    <path class="cls-19" d="m712.86,742.83c-49.13,43.26-105.44,73.03-168.92,89.32" vector-effect="non-scaling-stroke"/>
    <path class="cls-7" d="m543.94,832.15c-41.95,10.09-84.48,13.58-127.58,10.46" vector-effect="non-scaling-stroke"/>
    <path class="cls-19" d="m416.35,842.61c-82.62-6.71-155.8-36.17-219.53-88.38" vector-effect="non-scaling-stroke"/>
    <path class="cls-15" d="m196.83,754.23C37.85,621.86,5.24,397.99,119.85,225.59" vector-effect="non-scaling-stroke"/>
    <path class="cls-17" d="m119.85,225.59c23.53-33.72,51.33-63.42,83.39-89.09" vector-effect="non-scaling-stroke"/>
    <path class="cls-19" d="m203.24,136.5c43.47-34.1,91.97-58.13,145.52-72.1" vector-effect="non-scaling-stroke"/>
    <path class="cls-13" d="m638.73,100.15c57.04,32.44,103.84,75.92,140.41,130.43" vector-effect="non-scaling-stroke"/>
    <path class="cls-8" d="m779.15,230.58c79.86,122.25,85.45,275.87,17.93,404.73" vector-effect="non-scaling-stroke"/>
    <path class="cls-13" d="m668.67,503.57l4.39-.17c1.53-.05,2.74-1.31,2.74-2.85v-108.28c0-1.57-1.28-2.85-2.85-2.85h-13.49c-1.57,0-2.85,1.28-2.85,2.85l.06,110.48" vector-effect="non-scaling-stroke"/>
    <path class="cls-21" d="m610,466.96c-.46-14.08-.66-28.32-.6-42.71.03-9.41,4.56-15.62,14.37-9.52.78.48,1.29,1.33,1.34,2.28l.4,8.67c.08,1.56,1.4,2.77,2.97,2.71l13.43-.51c1.5-.06,2.69-1.27,2.74-2.77.67-22.73-10.62-33.03-33.84-30.91-.64.06-1.21-.39-1.28-1.02,0-.04,0-.08,0-.12v-.88c0-1.57-1.28-2.85-2.85-2.85,0,0-.02,0-.03,0l-12.74.11c-1.56.02-2.82,1.27-2.85,2.82l-.17,14.26" vector-effect="non-scaling-stroke"/>
    <path class="cls-21" d="m577.55,397.97l-.17-6.02c-.05-1.44-1.15-2.62-2.57-2.77-5.8-.59-11.39.11-16.79,2.11" vector-effect="non-scaling-stroke"/>
    <path class="cls-21" d="m557.77,383.06l16.76.37c1.57.03,2.88-1.22,2.91-2.79,0-.02,0-.04,0-.06v-12.69c0-1.56-1.26-2.84-2.82-2.85l-13.6-.14c-1.52-.02-2.79,1.16-2.88,2.68l-.06,1.17" vector-effect="non-scaling-stroke"/>
    <path class="cls-18" d="m444.27,163.47l2.54,1.25c.9.44,1.96.38,2.79-.17,13.86-8.97,28.47-16.46,43.85-22.47" vector-effect="non-scaling-stroke"/>
    <path class="cls-13" d="m493.45,142.09c29.82-9.92,60.19-11.72,91.09-5.39,22.78,4.65,41.03,16.36,60.3,29.74,3.34,2.31,5.73-1,2.39-3.31-52.12-35.98-109.83-56.26-173.14-60.84" vector-effect="non-scaling-stroke"/>
    <path class="cls-18" d="m474.09,102.29c-27.64-2.09-55.2-1.22-82.68,2.62" vector-effect="non-scaling-stroke"/>
    <path class="cls-24" d="m474.09,102.29v2.62" vector-effect="non-scaling-stroke"/>
    <path class="cls-18" d="m474.09,104.91c-52.65-3.48-102.36,3.63-149.14,21.33-9.33,3.54-9.05,4.7.86,3.51,43.7-5.21,83.75,4.64,120.17,29.54.95.66,2.2.67,3.16.03,13.72-9.14,28.22-16.27,43.48-21.38" vector-effect="non-scaling-stroke"/>
    <path class="cls-24" d="m492.62,137.92c1.35,1.33,1.63,2.72.83,4.16" vector-effect="non-scaling-stroke"/>
    <path class="cls-24" d="m290.91,141.49l-2.25-2.25" vector-effect="non-scaling-stroke"/>
    <path class="cls-13" d="m492.62,137.92c27.39-9.66,55.42-11.9,84.11-6.73.46.08.91.05,1.37-.09l1.05-.34c1.06-.34,1.08-.72.06-1.14-33.83-13.38-68.87-21.62-105.12-24.72" vector-effect="non-scaling-stroke"/>
    <path class="cls-8" d="m685.09,279.33c7.2-2.24,14.48-2.8,21.84-1.68,11.18,1.71,20.84-2.42,26.46-11.69,21.41-35.32-12.89-59.56-35.98-77.49-.7-.53-1.63-.63-2.39-.26-1.84.89-2.12,2.19-.83,3.88,18.05,23.49,22.07,60.3-3.16,80.14-.88.71-2.1.82-3.11.29l-18.53-9.86" vector-effect="non-scaling-stroke"/>
    <path class="cls-21" d="m669.38,262.66c-29.37-20.38-55.51-110.36-100.67-89.38-.77.36-1.67.35-2.42-.03-25.12-12.06-51.26,13.06-24.18,31.25,5.74,3.84,12.01,6.4,18.82,7.67,3.36.63,4.15-.52,2.37-3.45-5.63-9.14-5.18-18.29,1.34-27.46.91-1.28,2.69-1.58,3.98-.67.14.1.27.21.39.33,22.01,22.44,36.98,49.47,57.42,76.12,15.03,19.62,34.59,27.05,58.67,22.3" vector-effect="non-scaling-stroke"/>
    <path class="cls-9" d="m669.38,262.66l-.71,2.14" vector-effect="non-scaling-stroke"/>
    <path class="cls-21" d="m668.67,264.79c-14.39-10.83-25.13-22.99-32.22-36.46-9.12-17.39-27.46-47.7-45.56-53.57-5.06-1.63-10.34-1.76-15.85-.37-1.53.38-2.45,1.93-2.07,3.46.12.48.36.92.7,1.27,13.21,14.03,24.86,29.32,34.95,45.87,17.68,28.99,37.01,56.11,72.87,51.2" vector-effect="non-scaling-stroke"/>
    <path class="cls-9" d="m681.5,276.2c2.15-.02,3.35,1.03,3.59,3.14" vector-effect="non-scaling-stroke"/>
    <path class="cls-8" d="m668.67,264.79c1.4,1.08,19.33,10.43,12.83,11.4" vector-effect="non-scaling-stroke"/>
    <path class="cls-8" d="m722.27,408.66h7.7c1.57,0,2.85-1.28,2.85-2.85v-13.74c0-1.57-1.26-2.85-2.82-2.85l-7.87-.06c-1.58-.02-2.85-1.29-2.85-2.85v-24.63c0-1.56-1.26-2.84-2.82-2.85l-13.51-.23c-1.57-.03-2.88,1.22-2.91,2.79,0,.02,0,.04,0,.06v24.58c0,1.54-1.22,2.8-2.77,2.85l-8.18.23c-1.5.04-2.71,1.24-2.77,2.74l-.57,13.86c-.08,1.56,1.13,2.88,2.7,2.96.05,0,.1,0,.15,0h8.44c1.56,0,2.84,1.26,2.85,2.82.17,17.05.22,34.1.14,51.15-.11,22.27,4.11,36.95,27.31,40.94,1.55.27,3.03-.77,3.29-2.32.03-.18.05-.37.04-.56l-.34-14.03c-.02-1.33-.97-2.47-2.28-2.74-5.63-1.08-8.53-4.31-8.72-9.69-.29-9.09-.26-30,.09-62.75.02-1.56,1.29-2.82,2.85-2.82" vector-effect="non-scaling-stroke"/>
    <path class="cls-13" d="m675.73,366.01c0-.58-.48-1.05-1.06-1.05h0l-17.11.15c-.58,0-1.05.48-1.05,1.06h0s.14,16.54.14,16.54c0,.58.48,1.05,1.06,1.05h0l17.11-.15c.58,0,1.05-.48,1.05-1.06h0s-.14-16.54-.14-16.54" vector-effect="non-scaling-stroke"/>
    <path class="cls-15" d="m215.96,267.53l-11.83,3.45c-.96.28-1.98.04-2.71-.63-22.44-20.5-16.88-56.93-.2-78.89.53-.7.49-1.67-.09-2.31-.84-.95-1.97-1.09-3.39-.43-22.92,10.75-46.47,34.38-41.4,61.53,4.05,21.7,22.15,31.42,43.22,26,.59-.15,1.21-.11,1.77.11,8.08,3.19,12.92,4.88,14.54,5.07,19.48,2.36,36.18-4.38,50.09-20.21" vector-effect="non-scaling-stroke"/>
    <path class="cls-19" d="m265.96,261.23c21.64-25.66,37.09-56.22,61.33-80.31,1.11-1.11,2.92-1.1,4.05.02.16.17.31.35.43.55,5.4,9.01,5.33,17.94-.2,26.8-2.19,3.5-1.24,4.93,2.85,4.31,44.45-6.76,33.33-54.91-3.14-39.52-.79.34-1.71.29-2.48-.14-30.51-16.71-54.91,19.84-67.46,42.2-11.38,20.24-24.86,41.43-45.39,52.4" vector-effect="non-scaling-stroke"/>
    <path class="cls-9" d="m265.96,261.23l-2.85-2.37" vector-effect="non-scaling-stroke"/>
    <path class="cls-19" d="m263.11,258.86c16.11-20.44,28.6-43.93,45.19-63.49,4.79-5.63,9.7-11.22,14.74-16.79,1.05-1.17.95-2.97-.22-4.03-.28-.25-.6-.44-.95-.56-12.43-4.39-23.25-1.46-32.47,8.78-6.1,6.76-13.23,13.74-17.73,21.78-13.43,24.01-30.45,52.57-54.17,65.23" vector-effect="non-scaling-stroke"/>
    <path class="cls-9" d="m217.5,269.78l-1.54-2.25" vector-effect="non-scaling-stroke"/>
    <path class="cls-15" d="m263.11,258.86c-11.84,12.85-26.56,19.28-44.16,19.3-1.37,0-2.96-.32-4.76-.97-3.78-1.35-3.95-3.06-.51-5.13l3.82-2.28" vector-effect="non-scaling-stroke"/>
    <path class="cls-15" d="m174.59,411.48c.15,16.06.21,32.13.17,48.21-.06,23.04,2.77,39.8,27.31,43.91,1.54.27,3-.77,3.27-2.32.03-.16.04-.33.04-.5v-13.97c0-1.39-.99-2.57-2.34-2.82-5.76-1.03-8.73-4.33-8.92-9.92-.29-8.15-.31-29.01-.09-62.58.02-1.56,1.29-2.82,2.85-2.82h7.75c1.54,0,2.8-1.22,2.85-2.77l.48-13.83c.07-1.56-1.14-2.87-2.7-2.94-.09,0-.18,0-.26,0l-8.07.34c-1.57.06-2.9-1.16-2.96-2.73,0-.04,0-.08,0-.12v-24.98c0-1.56-1.26-2.84-2.82-2.85l-13.54-.11c-1.57-.02-2.86,1.25-2.88,2.82,0,0,0,.02,0,.03v25.03c0,1.57-1.28,2.85-2.85,2.85h-7.84c-1.58.02-2.85,1.29-2.85,2.85v13.54c0,1.57,1.28,2.85,2.85,2.85h7.7c1.56,0,2.84,1.26,2.85,2.82" vector-effect="non-scaling-stroke"/>
    <path class="cls-17" d="m239.62,408.26c8.81-2.14,12.86,2.77,12.83,11.49-.06,27.18-.05,54.37.03,81.57,0,1.57,1.28,2.85,2.85,2.85h13.46c1.57,0,2.85-1.28,2.85-2.85.02-26.12.03-52.24.03-78.37,0-20.96-8.13-34.87-31.13-33.67-1.57.08-2.91-1.13-2.99-2.7,0-.05,0-.1,0-.15v-24.8c0-1.57-1.28-2.85-2.85-2.85h-13c-1.56,0-2.82,1.28-2.82,2.85l.09,139.7c0,1.57,1.28,2.85,2.85,2.85h12.83c1.57,0,2.85-1.26,2.85-2.82,0,0,0-.02,0-.03l-.06-90.29c0-1.32.91-2.46,2.2-2.77" vector-effect="non-scaling-stroke"/>
    <path class="cls-7" d="m367.12,366.25c0-.68-.56-1.22-1.23-1.22l-16.76.12c-.68,0-1.22.56-1.22,1.23h0s.11,16.14.11,16.14c0,.68.56,1.22,1.23,1.22l16.76-.12c.68,0,1.22-.56,1.22-1.23h0s-.11-16.14-.11-16.14" vector-effect="non-scaling-stroke"/>
    <path class="cls-7" d="m433.63,496.84c13.54,13.06,35.72,6.1,42.17-10.12,2.94-7.44,1.91-17.11,1.8-25.52-.02-.71-.3-1.4-.8-1.91-10.24-10.76-20.55-21.48-30.91-32.16-13.97-14.37,12.97-30.36,12.46-8.9-.06,2.32.02,4.68.23,7.07.13,1.47,1.36,2.6,2.82,2.59h13.34c1.55,0,2.82-1.24,2.85-2.79.17-7.18.19-11.49.06-12.92-2.94-28.62-44.19-32.3-52.97-3.76-2,6.47-1.11,14.6-1.23,21.84-.02.75.27,1.48.8,2.02,9.9,10.28,19.77,20.54,29.59,30.76,17.22,17.9-11.63,29.91-11.29,12.63.11-5.11.07-9.14-.14-12.09-.11-1.53-1.4-2.7-2.94-2.65l-12.92.43c-1.29.04-2.39.95-2.68,2.22-2.93,13.06.32,24.14,9.75,33.24" vector-effect="non-scaling-stroke"/>
    <path class="cls-19" d="m297.01,499.75c3.16,2.15,6.1,3.28,8.84,3.39l26.29,1.25c1.56.08,2.88-1.13,2.96-2.7,0-.05,0-.1,0-.15.08-28.55-.18-56.39-.77-83.54-.37-17.13-7.81-29.91-26.34-28.71-15.82,1.05-23.52,13.03-23.52,27.91,0,2.87.03,5.74.09,8.61.03,1.55,1.3,2.79,2.85,2.79h12.69c1.54,0,2.8-1.22,2.85-2.77l.48-15c.03-1.38,1.05-2.54,2.42-2.74,14.17-2.02,10.32,16.39,9.86,24.78-.1,1.46-1.26,2.61-2.71,2.68-1.63.1-3.78.1-6.44.03-15.51-.46-21.38,12.03-21.38,26.43,0,15.2-2.77,27.83,11.83,37.72" vector-effect="non-scaling-stroke"/>
    <path class="cls-7" d="m367.17,390.3c0-.49-.4-.88-.88-.88h-17.45c-.49,0-.88.4-.88.88v112.27c0,.49.4.88.88.88h17.45c.49,0,.88-.4.88-.88v-112.27" vector-effect="non-scaling-stroke"/>
    <path class="cls-7" d="m545.02,463.74c.61-16.55.48-33.08-.37-49.58-.8-15.4-9.41-24.49-24.86-24.8-8.67-.19-17.33-.07-26,.37-1.52.08-2.71,1.33-2.71,2.85l.09,143.66c0,1.57,1.28,2.85,2.85,2.85h13.03c1.57,0,2.85-1.29,2.85-2.88h0l-.23-29.57c-.02-1.57,1.25-2.86,2.82-2.88h0c9.14-.04,14.88-.6,17.22-1.68,17.68-8.32,14.74-22.21,15.31-38.35" vector-effect="non-scaling-stroke"/>
    <path class="cls-19" d="m595.97,681.53c-8.23,12.35-17.49,23.43-27.77,33.21-1.14,1.08-2.95,1.03-4.03-.11-.15-.16-.28-.33-.39-.52-5.11-8.55-5.43-17.07-.94-25.55,1.63-3.06.72-4.45-2.74-4.16-5.06.4-9.8,1.74-14.23,4.02-29.39,15.11-10.63,46.7,18.87,34.3.79-.33,1.69-.28,2.45.11,29.57,15.62,52.8-15.2,65.15-37.49,13.86-25,29.71-49.92,58.59-60.24" vector-effect="non-scaling-stroke"/>
    <path class="cls-15" d="m690.94,625.11c14.03,10.8,19.71,25.43,17.05,43.91-1.58,11-6.05,22.66-13.43,34.95-1.14,1.92-.96,3.46.54,4.62.68.53,1.6.63,2.37.26,26.54-12.49,50.46-39.26,39.34-71.16-6.53-18.67-25.26-18.33-42.2-17.42-.56.04-1.11-.09-1.6-.37-9.56-5.49-19.83-7.06-30.82-4.7-30.79,6.64-51.43,40.8-66.23,66.34" vector-effect="non-scaling-stroke"/>
    <path class="cls-9" d="m690.94,625.11l-5.87-1.31" vector-effect="non-scaling-stroke"/>
    <path class="cls-15" d="m685.06,623.8c2-.91.93-2.61-3.19-5.1-.42-.25-.86-.38-1.34-.4-42.31-2.31-61.81,34.38-80.88,64.78" vector-effect="non-scaling-stroke"/>
    <path class="cls-9" d="m599.65,683.07c-.65-1.52-1.87-2.03-3.68-1.54" vector-effect="non-scaling-stroke"/>
    <path class="cls-19" d="m685.06,623.8c-36.01,10.12-46.47,50.21-67.94,76.44-11.75,14.31-24.58,27.97-44.33,21.27-1.49-.52-2.28-2.14-1.76-3.63.15-.44.42-.84.76-1.16,10.97-10.11,20.25-21.33,27.85-33.64" vector-effect="non-scaling-stroke"/>
    <path class="cls-19" d="m250.88,664.54c14.37,22.18,40.17,78.92,76.38,57.53.88-.53,1.97-.54,2.85-.03,27.8,15.65,46.22-19.62,22.18-31.33-6.18-3-11.76-5.4-16.74-7.18-4.43-1.6-5.61-.29-3.54,3.93,4.54,9.18,3.8,17.94-2.22,26.29-.9,1.27-2.68,1.56-3.96.64-.17-.12-.32-.26-.46-.41-3.54-3.92-7.12-7.85-10.75-11.8-22.72-24.69-34.21-58.93-62.21-78.37" vector-effect="non-scaling-stroke"/>
    <path class="cls-15" d="m252.42,623.8c-13.57-9.35-27.99-11.58-43.25-6.67-18.73,6.04-41.34-6.93-51.55,19.64-11.83,30.79,14.43,58.87,40.54,70.85.59.29,1.3.29,1.91,0,1.54-.7,1.75-1.83.63-3.39-15.88-22.01-22.32-59.84,2-79.06.75-.57,1.73-.75,2.62-.48,21.9,6.79,32.73,21.44,45.56,39.86" vector-effect="non-scaling-stroke"/>
    <path class="cls-9" d="m252.42,623.8l-1.43,3.56" vector-effect="non-scaling-stroke"/>
    <path class="cls-15" d="m251,627.36c-10.3-6.82-21.32-9.6-33.04-8.32-5.7.61-6.08,2.37-1.14,5.27,15.07,8.88,27.39,20.94,36.95,36.18" vector-effect="non-scaling-stroke"/>
    <path class="cls-9" d="m253.76,660.49c-2.6.72-3.56,2.07-2.88,4.05" vector-effect="non-scaling-stroke"/>
    <path class="cls-19" d="m251,627.36c13.91,9.01,28.37,30.76,36.86,44.96,9.35,15.6,20.34,30.06,32.96,43.36,1.09,1.14,1.05,2.94-.09,4.03-.28.27-.62.48-.99.62-4.22,1.52-8.51,1.92-12.86,1.2-20.21-3.36-45.07-43.79-53.11-61.04" vector-effect="non-scaling-stroke"/>
    <path class="cls-7" d="m288.06,756.37c57.88,30.64,119.65,43.23,185.32,37.78" vector-effect="non-scaling-stroke"/>
    <path class="cls-17" d="m473.38,794.14c55.14-1.45,113.67-23.69,160.63-51.58,4.12-2.45,9.27-6.21,15.42-11.26.51-.42.75-1.1.63-1.77-.25-1.22-1.19-1.26-2.82-.14-19.99,13.71-42.08,27.26-65.83,31.48-31.86,5.66-63.31,2.77-94.37-8.67" vector-effect="non-scaling-stroke"/>
    <path class="cls-7" d="m487.03,752.21c-13.19-5.64-25.76-12.42-37.72-20.33-.96-.64-2.21-.63-3.16.03-48.41,32.65-100.83,39.9-157.26,21.72" vector-effect="non-scaling-stroke"/>
    <path class="cls-17" d="m288.89,753.63l-39.91-24.46c-.55-.34-1.27-.17-1.61.38-.04.07-.08.14-.1.21-1.14,3.34,34.33,23.29,40.8,26.6" vector-effect="non-scaling-stroke"/>
    <path class="cls-24" d="m288.89,753.63l-.83,2.74" vector-effect="non-scaling-stroke"/>
    <path class="cls-7" d="m486.09,755.06c-13.25-4.54-25.37-10.77-36.38-18.67-.96-.7-2.26-.71-3.25-.03-36.15,24.69-75.88,34.62-119.2,29.79-10.7-1.2-10.97-.02-.8,3.54,46.49,16.23,92.61,23.44,138.36,21.61" vector-effect="non-scaling-stroke"/>
    <path class="cls-24" d="m473.38,794.14c-1.39-3.04-4.24-3.99-8.55-2.85" vector-effect="non-scaling-stroke"/>
    <path class="cls-17" d="m464.82,791.29c42.21-2.49,82.07-11.3,119.57-26.43,1.46-.59,1.87-1.25,1.23-2-.23-.28-.58-.4-.91-.31-33.83,8.12-66.7,5.62-98.62-7.5" vector-effect="non-scaling-stroke"/>
    <path class="cls-24" d="m486.09,755.06l.94-2.85" vector-effect="non-scaling-stroke"/>
    <path class="cls-19" d="m339.43,196.77c-.17,2.74-.58,5.17-1.23,7.3-1.1,3.63.13,4.81,3.71,3.54,7.2-2.6,12.86-7.26,16.96-13.97,2.98-4.88,2.5-9.11-1.45-12.69-5.97-5.44-12.76-7.01-20.38-4.73-1.51.45-2.36,2.05-1.91,3.55.07.22.16.44.28.64,3,5.06,4.34,10.51,4.02,16.36" vector-effect="non-scaling-stroke"/>
    <path class="cls-21" d="m538.86,179.78c-4.45,4.43-4.93,9.26-1.45,14.48,3.74,5.65,8.71,9.55,14.88,11.72,3.23,1.12,4.48.02,3.73-3.31-1.79-8.15-.16-15.6,4.88-22.32.94-1.28.68-3.08-.59-4.01-.14-.1-.28-.19-.44-.26-7.72-3.8-14.72-2.57-21.01,3.71" vector-effect="non-scaling-stroke"/>
    <path class="cls-8" d="m712.06,241.7c-1.35,11.61-5.47,20.9-12.37,27.85-2.79,2.83-2.21,4.45,1.74,4.85,16.92,1.73,27.66-4.95,32.22-20.04,2.24-7.37,2.77-13,1.6-16.88-4.33-14.35-12.4-25.62-24.21-33.81-4.09-2.83-5.23-1.93-3.42,2.71,4.37,11.29,5.85,23.06,4.45,35.32" vector-effect="non-scaling-stroke"/>
    <path class="cls-15" d="m171.28,213.53c-13.37,15.05-17.68,42.68.71,55.42,5.72,3.95,12.49,5.42,20.3,4.39,3.33-.44,3.94-1.97,1.85-4.59-2.85-3.57-4.51-5.94-4.99-7.1-8.55-20.47-8.19-40.29,1.08-59.47,2.64-5.49,1.5-6.44-3.42-2.85-5.61,4.11-10.79,8.84-15.54,14.2" vector-effect="non-scaling-stroke"/>
    <path class="cls-19" d="m312.66,485.06c1.56.19,2.98-.93,3.17-2.49.01-.11.02-.22.02-.33v-24.4c0-1.57-1.28-2.85-2.85-2.85h-6.24c-1.52,0-2.77,1.19-2.85,2.71-.4,8.87-4.25,25.8,8.75,27.37" vector-effect="non-scaling-stroke"/>
    <path class="cls-7" d="m525.44,411.46c0-1.53-1.23-2.77-2.76-2.77h0l-9.86-.02c-1.53,0-2.77,1.23-2.77,2.76h0l-.12,69.91c0,1.53,1.23,2.77,2.76,2.77h0l9.86.02c1.53,0,2.77-1.23,2.77-2.76h0l.12-69.91" vector-effect="non-scaling-stroke"/>
    <path class="cls-15" d="m723.01,628.02c-5.38-3.84-11.72-5.24-19.02-4.19-1.55.21-2.62,1.64-2.4,3.2.05.38.18.74.38,1.07,13.3,22.39,13.97,44.88,2,67.48-2.87,5.42-1.77,6.41,3.31,2.97,8.25-5.63,15.38-12.84,21.38-21.64,10.38-15.22,10.38-37.49-5.65-48.9" vector-effect="non-scaling-stroke"/>
    <path class="cls-15" d="m185.14,695.07c5.38,4.35,6.54,3.42,3.48-2.79-7.47-15.09-8.3-32.18-2.48-51.26,1.43-4.68,4.12-9.24,8.1-13.68,2.28-2.57,1.73-4.13-1.65-4.7-5.68-.97-11.07-.5-16.17,1.4-19.93,7.41-21.47,33.1-11.75,48.87,4.66,7.53,11.48,14.92,20.47,22.18" vector-effect="non-scaling-stroke"/>
    <path class="cls-19" d="m334.42,719.82c10.57,4.3,19.51,1.33,26.83-8.9.61-.84.71-1.95.26-2.88-4.24-8.97-10.62-15.19-19.13-18.65-3.31-1.35-4.59-.27-3.85,3.25,1.77,8.36,0,15.96-5.3,22.78-.96,1.25-.73,3.04.51,4,.21.16.44.29.68.39" vector-effect="non-scaling-stroke"/>
    <path class="cls-19" d="m541.91,718.36c5.61,3.1,11.39,3.66,17.33,1.68,1.49-.5,2.29-2.12,1.79-3.61-.09-.26-.21-.5-.36-.72-4.96-7.2-6.22-14.98-3.76-23.32,1.06-3.65-.18-4.81-3.73-3.48-4.73,1.77-8.82,4.32-12.26,7.67-7.38,7.1-9.61,15.88,1,21.78" vector-effect="non-scaling-stroke"/>
  </g>
  <path class="cls-1" d="m634.46,41.7l3.56,2.14-2.85,5.7c-30.33-14.37-61.93-25.06-94.8-32.07C438.27-3.27,340.9,9.29,248.26,55.13c-3.23-1.29-4.02-3.19-2.37-5.7C297.88,22.89,353.03,7.18,411.37,2.27c77.89-5.65,152.25,7.5,223.09,39.43Z"/>
  <path class="cls-4" d="m540.37,17.47c-1.96,2.53-3.9,2.91-5.82,1.14-.7-.63-1.65-.87-2.57-.66-1.96.44-3.73.08-5.33-1.08-.62-.44-1.39-.62-2.14-.51l-5.07.83c-1.73.27-1.91.95-.54,2.05.59.48.71,1.05.37,1.74-.43.82-.15,1.84.63,2.34l5.02,3.22c.68.44.99,1.27.77,2.05-.3,1.08-1.11,1.65-2.42,1.71-89.73-15.11-175.59-3.67-257.59,34.33-63.71,30.64-116.56,74.28-158.55,130.92C2.93,334.82-3.23,520.53,85.52,668.81c35.33,56.79,81.23,103.08,137.68,138.87,134.94,84.13,303.75,85.25,440.48,4.99,31.76-18.74,60.55-41.27,86.36-67.6,48.62-49.53,83.07-107.5,103.35-173.91h.8c.41-.01.75.31.76.72,0,.06,0,.13-.02.19l-2.88,11.4c-.34,1.28.26,2.62,1.43,3.22,3.61,1.86,7.55,2.15,11.8.86-17.49,53.77-44.77,101.96-81.85,144.58-38.09,45.26-83.47,81.37-136.14,108.34-79.83,39.84-164.41,54.64-253.74,44.42-101.19-13.46-187.67-56.06-259.44-127.81C-2.97,615.98-31.28,408.54,61.43,235.74c6.47-12.06,15.02-24.43,22.78-36.52,42.84-61.53,97.52-109.56,164.05-144.09C340.9,9.29,438.27-3.27,540.37,17.47Z"/>
  <path class="cls-6" d="m540.37,17.47c32.86,7.01,64.46,17.7,94.8,32.07,81.58,39.8,145.96,98.48,193.16,176.05,63.21,111.56,77.46,240.57,36.95,361.97-4.26,1.29-8.19,1.01-11.8-.86-1.17-.6-1.76-1.94-1.43-3.22l2.88-11.4c.09-.4-.15-.8-.55-.89-.06-.01-.13-.02-.19-.02h-.8c38.06-131.4,16.14-276.12-71.28-383.46-54.64-70.21-124.53-118.64-209.66-145.29l-49.18-12.12c1.31-.06,2.12-.63,2.42-1.71.22-.78-.09-1.61-.77-2.05l-5.02-3.22c-.78-.5-1.05-1.51-.63-2.34.34-.68.22-1.26-.37-1.74-1.37-1.1-1.19-1.79.54-2.05l5.07-.83c.75-.11,1.52.07,2.14.51,1.6,1.16,3.37,1.52,5.33,1.08.91-.22,1.87.03,2.57.66,1.92,1.77,3.86,1.39,5.82-1.14Z"/>
  <path class="cls-1" d="m523.27,30.3l49.18,12.12c-.27,2.49-1.45,4.39-3.56,5.7l-37.06-9.27c-90.78-17.79-177.97-7.57-261.58,30.65-5.25,1.65-6.77.03-4.56-4.88,82-37.99,167.86-49.44,257.59-34.33Z"/>
  <path class="cls-4" d="m531.82,38.85c-.93,1.46-2.08,2.69-3.45,3.68-1.11.79-1.49,2.26-.91,3.51l3.71,8.01c-62.32-13.25-124.11-11.66-185.37,4.76-55.21,13.84-104.87,38.71-148.97,74.61-31.97,25.2-59.33,54.7-82.08,88.5-82.39,115.81-88.55,266.46-34.01,391.73,24.35,55.94,64.46,105.72,111.1,144.86,62.4,51.24,133.91,81.18,214.54,89.81,47.52,5.17,94.32,1.61,140.41-10.69,65.23-16.29,122.53-47.14,171.89-92.54,16.21-14.73,31.14-30.69,44.79-47.87,5.19,1.25,9.29,3.89,12.32,7.9l-30.85,35.58c-25.64,25.74-53.95,48.11-84.93,67.11-135.79,77.86-300.3,76.32-433.95-5.82-55.48-36.11-100.86-82.2-136.14-138.27C3.7,517.2,10.65,335.61,112.72,198.51c42.02-55.79,94.53-98.79,157.52-129.01,83.61-38.22,170.8-48.44,261.58-30.65Z"/>
  <path class="cls-6" d="m531.82,38.85l37.06,9.27c84.37,26.5,153.75,74.49,208.12,143.98,117.32,146.14,118.35,367.35-1.23,513.01-3.02-4.01-7.13-6.64-12.32-7.9,107.68-134.65,115.95-325.96,20.78-470.31-36.51-55.1-83.59-98.78-141.24-131.03-35.2-19.73-72.48-33.67-111.85-41.82l-3.71-8.01c-.58-1.24-.19-2.72.91-3.51,1.37-.99,2.52-2.21,3.45-3.68Z"/>
  <path class="cls-2" d="m572.45,42.41c85.13,26.65,155.02,75.08,209.66,145.29-.3,3.31-2.01,4.77-5.1,4.39-54.38-69.49-123.75-117.48-208.12-143.98,2.11-1.31,3.3-3.21,3.56-5.7Z"/>
  <path class="cls-3" d="m638.02,43.84c81.94,37.89,147.85,99.9,194.7,176.65.72,4.5-.74,6.21-4.39,5.1-47.19-77.57-111.58-136.25-193.16-176.05l2.85-5.7Z"/>
  <path class="cls-1" d="m531.17,54.05c39.36,8.15,76.65,22.1,111.85,41.82l-4.28,4.28c-78.94-42.39-163.04-56.88-252.32-43.48l-37.66,7.73c-1.86-1.44-2.85-3.31-2.97-5.59,61.26-16.42,123.05-18.01,185.37-4.76Z"/>
  <path class="cls-3" d="m245.89,49.43c-1.65,2.51-.86,4.41,2.37,5.7-66.52,34.54-121.21,82.57-164.05,144.09l-4.39-4.39c42.94-62.65,98.29-111.11,166.07-145.4Z"/>
  <path class="cls-2" d="m345.79,58.81c.11,2.28,1.1,4.14,2.97,5.59-53.54,13.97-102.05,38-145.52,72.1l-6.41-3.08c44.1-35.9,93.75-60.77,148.97-74.61Z"/>
  <path class="cls-3" d="m265.68,64.62c-2.2,4.9-.68,6.53,4.56,4.88-62.99,30.22-115.5,73.22-157.52,129.01-2.39.08-4.26-.91-5.59-2.97,41.99-56.64,94.83-100.28,158.55-130.92Z"/>
  <path class="cls-3" d="m643.01,95.87c57.65,32.25,104.73,75.93,141.24,131.03-.25,3.59-1.95,4.82-5.1,3.68-36.57-54.51-83.37-97.99-140.41-130.43l4.28-4.28Z"/>
  <path class="cls-1" d="m474.09,102.29v2.62c-52.65-3.48-102.36,3.63-149.14,21.33-9.33,3.54-9.05,4.7.86,3.51,43.7-5.21,83.75,4.64,120.17,29.54.95.66,2.2.67,3.16.03,13.72-9.14,28.22-16.27,43.48-21.38,1.35,1.33,1.63,2.72.83,4.16-15.38,6.01-29.99,13.49-43.85,22.47-.83.55-1.89.62-2.79.17l-2.54-1.25c-47.21-31.4-98.33-38.73-153.36-21.98l-2.25-2.25c32.41-16.88,66.66-28.32,102.75-34.33,27.48-3.84,55.04-4.71,82.68-2.62Z"/>
  <path class="cls-3" d="m474.09,102.29c63.31,4.58,121.03,24.86,173.14,60.84,3.34,2.31.94,5.62-2.39,3.31-19.27-13.37-37.52-25.09-60.3-29.74-30.91-6.33-61.27-4.53-91.09,5.39.8-1.44.52-2.83-.83-4.16,27.39-9.66,55.42-11.9,84.11-6.73.46.08.91.05,1.37-.09l1.05-.34c1.06-.34,1.08-.72.06-1.14-33.83-13.38-68.87-21.62-105.12-24.72v-2.62Z"/>
  <path class="cls-3" d="m203.24,136.5c-32.06,25.68-59.86,55.38-83.39,89.09-3.35,1.08-5.05-.14-5.1-3.68,22.75-33.79,50.11-63.29,82.08-88.5l6.41,3.08Z"/>
  <path class="cls-3" d="m288.66,139.24l2.25,2.25c-14.41,6.65-28.02,14.68-40.83,24.09-1.63,1.2-7.04,2.42-1.2-2.08,12.34-9.56,25.59-17.65,39.77-24.26Z"/>
  <path class="cls-2" d="m265.96,261.23l-2.85-2.37c16.11-20.44,28.6-43.93,45.19-63.49,4.79-5.63,9.7-11.22,14.74-16.79,1.05-1.17.95-2.97-.22-4.03-.28-.25-.6-.44-.95-.56-12.43-4.39-23.25-1.46-32.47,8.78-6.1,6.76-13.23,13.74-17.73,21.78-13.43,24.01-30.45,52.57-54.17,65.23l-1.54-2.25c20.53-10.98,34.01-32.16,45.39-52.4,12.54-22.35,36.95-58.9,67.46-42.2.77.43,1.69.48,2.48.14,36.46-15.4,47.58,32.76,3.14,39.52-4.09.63-5.04-.81-2.85-4.31,5.53-8.86,5.6-17.79.2-26.8-.82-1.36-2.58-1.81-3.93-.99-.2.12-.38.26-.54.42-24.23,24.09-39.69,54.65-61.33,80.31Zm73.47-64.46c-.17,2.74-.58,5.17-1.23,7.3-1.1,3.63.13,4.81,3.71,3.54,7.2-2.6,12.86-7.26,16.96-13.97,2.98-4.88,2.5-9.11-1.45-12.69-5.97-5.44-12.76-7.01-20.38-4.73-1.51.45-2.36,2.05-1.91,3.55.07.22.16.44.28.64,3,5.06,4.34,10.51,4.02,16.36Z"/>
  <path class="cls-2" d="m669.38,262.66l-.71,2.14c-14.39-10.83-25.13-22.99-32.22-36.46-9.12-17.39-27.46-47.7-45.56-53.57-5.06-1.63-10.34-1.76-15.85-.37-1.53.38-2.45,1.93-2.07,3.46.12.48.36.92.7,1.27,13.21,14.03,24.86,29.32,34.95,45.87,17.68,28.99,37.01,56.11,72.87,51.2,2.15-.02,3.35,1.03,3.59,3.14-24.08,4.75-43.64-2.68-58.67-22.3-20.44-26.66-35.41-53.68-57.42-76.12-1.1-1.13-2.91-1.15-4.03-.04-.12.12-.23.25-.33.39-6.52,9.16-6.97,18.31-1.34,27.46,1.79,2.93,1,4.08-2.37,3.45-6.8-1.27-13.08-3.83-18.82-7.67-27.08-18.19-.94-43.31,24.18-31.25.76.38,1.65.39,2.42.03,45.16-20.98,71.3,68.99,100.67,89.38Zm-130.52-82.88c-4.45,4.43-4.93,9.26-1.45,14.48,3.74,5.65,8.71,9.55,14.88,11.72,3.23,1.12,4.48.02,3.73-3.31-1.79-8.15-.16-15.6,4.88-22.32.94-1.28.68-3.08-.59-4.01-.14-.1-.28-.19-.44-.26-7.72-3.8-14.72-2.57-21.01,3.71Z"/>
  <path class="cls-5" d="m685.09,279.33c-.25-2.11-1.44-3.16-3.59-3.14,6.5-.97-11.43-10.32-12.83-11.4l.71-2.14,18.53,9.86c1.01.53,2.23.42,3.11-.29,25.23-19.84,21.21-56.65,3.16-80.14-1.29-1.69-1.02-2.98.83-3.88.77-.37,1.69-.27,2.39.26,23.09,17.93,57.39,42.17,35.98,77.49-5.62,9.27-15.28,13.4-26.46,11.69-7.36-1.12-14.64-.56-21.84,1.68Zm26.97-37.63c-1.35,11.61-5.47,20.9-12.37,27.85-2.79,2.83-2.21,4.45,1.74,4.85,16.92,1.73,27.66-4.95,32.22-20.04,2.24-7.37,2.77-13,1.6-16.88-4.33-14.35-12.4-25.62-24.21-33.81-4.09-2.83-5.23-1.93-3.42,2.71,4.37,11.29,5.85,23.06,4.45,35.32Z"/>
  <path class="cls-5" d="m782.11,187.7c87.41,107.34,109.34,252.06,71.28,383.46-20.28,66.41-54.73,124.38-103.35,173.91-.19-3.99-1.89-5.45-5.1-4.39l30.85-35.58c119.57-145.66,118.55-366.87,1.23-513.01,3.1.38,4.8-1.08,5.1-4.39Z"/>
  <path class="cls-5" d="m215.96,267.53l1.54,2.25-3.82,2.28c-3.44,2.07-3.27,3.78.51,5.13,1.81.65,3.39.97,4.76.97,17.6-.02,32.32-6.45,44.16-19.3l2.85,2.37c-13.91,15.83-30.61,22.57-50.09,20.21-1.62-.19-6.46-1.88-14.54-5.07-.56-.22-1.17-.26-1.77-.11-21.07,5.42-39.17-4.31-43.22-26-5.07-27.14,18.47-50.78,41.4-61.53,1.43-.67,2.56-.52,3.39.43.58.64.62,1.61.09,2.31-16.68,21.95-22.24,58.39.2,78.89.72.67,1.75.91,2.71.63l11.83-3.45Zm-44.68-54c-13.37,15.05-17.68,42.68.71,55.42,5.72,3.95,12.49,5.42,20.3,4.39,3.33-.44,3.94-1.97,1.85-4.59-2.85-3.57-4.51-5.94-4.99-7.1-8.55-20.47-8.19-40.29,1.08-59.47,2.64-5.49,1.5-6.44-3.42-2.85-5.61,4.11-10.79,8.84-15.54,14.2Z"/>
  <path class="cls-5" d="m79.82,194.83l4.39,4.39c-7.75,12.09-16.31,24.46-22.78,36.52C-31.28,408.54-2.97,615.98,134.1,757.08c-2.62.8-3.85,2.5-3.68,5.1C25.31,655.1-18.11,511.15,8.77,362.33c12.74-60.21,35.07-118.37,71.05-167.5Z"/>
  <path class="cls-5" d="m107.13,195.54c1.33,2.05,3.19,3.04,5.59,2.97C10.65,335.61,3.7,517.2,89.91,663.71l-.74-.26c-1.5-.49-3.11.33-3.6,1.82-.11.32-.15.66-.14,1l.09,2.54C-3.23,520.53,2.93,334.82,107.13,195.54Z"/>
  <path class="cls-5" d="m832.72,220.49c31.08,53.77,50.8,111.5,59.16,173.2,11.35,106.86-13.17,217.85-75.55,305.77l-26.37,34.21c-1.56-2.32-3.73-2.83-6.53-1.54,37.08-42.61,64.37-90.81,81.85-144.58,40.51-121.4,26.26-250.41-36.95-361.97,3.65,1.1,5.11-.6,4.39-5.1Z"/>
  <path class="cls-5" d="m114.74,221.92c.06,3.54,1.76,4.76,5.1,3.68C5.24,397.99,37.85,621.86,196.83,754.23l-4.99,4.28c-46.64-39.14-86.76-88.92-111.1-144.86-54.54-125.27-48.38-275.92,34.01-391.73Z"/>
  <path class="cls-5" d="m784.25,226.9c95.17,144.35,86.9,335.65-20.78,470.31-13.65,17.18-28.58,33.14-44.79,47.87,1.05-4.26-.89-5.01-5.82-2.25,33.55-31.57,61.62-67.41,84.22-107.51,67.51-128.87,61.92-282.48-17.93-404.73,3.16,1.14,4.86-.09,5.1-3.68Z"/>
  <path class="cls-5" d="m171.74,408.66h-7.7c-1.57,0-2.85-1.28-2.85-2.85v-13.54c0-1.56,1.27-2.84,2.85-2.85h7.84c1.57,0,2.85-1.28,2.85-2.85v-25.03c0-1.57,1.28-2.85,2.85-2.85,0,0,.02,0,.03,0l13.54.11c1.56.02,2.82,1.29,2.82,2.85v24.98c0,1.57,1.27,2.85,2.85,2.85.04,0,.08,0,.12,0l8.07-.34c1.56-.08,2.88,1.12,2.96,2.67,0,.09,0,.18,0,.26l-.48,13.83c-.05,1.54-1.31,2.77-2.85,2.77h-7.75c-1.56,0-2.84,1.26-2.85,2.82-.23,33.57-.2,54.43.09,62.58.19,5.59,3.16,8.9,8.92,9.92,1.35.25,2.34,1.43,2.34,2.82v13.97c0,1.57-1.26,2.86-2.81,2.86-.17,0-.33-.01-.49-.04-24.55-4.11-27.37-20.87-27.31-43.91.04-16.08-.02-32.15-.17-48.21-.02-1.56-1.29-2.82-2.85-2.82Z"/>
  <path class="cls-5" d="m719.42,411.48c-.34,32.75-.37,53.67-.09,62.75.19,5.38,3.1,8.61,8.72,9.69,1.32.27,2.27,1.41,2.28,2.74l.34,14.03c.04,1.57-1.21,2.88-2.78,2.92-.19,0-.37,0-.56-.04-23.21-3.99-27.43-18.67-27.31-40.94.08-17.05.03-34.1-.14-51.15-.02-1.56-1.29-2.82-2.85-2.82h-8.44c-1.57,0-2.85-1.26-2.85-2.82,0-.05,0-.1,0-.14l.57-13.86c.06-1.5,1.27-2.69,2.77-2.74l8.18-.23c1.54-.05,2.77-1.31,2.77-2.85v-24.58c0-1.57,1.28-2.85,2.85-2.85.02,0,.04,0,.06,0l13.51.23c1.56.02,2.82,1.29,2.82,2.85v24.63c0,1.56,1.27,2.84,2.85,2.85l7.87.06c1.56,0,2.82,1.28,2.82,2.85v13.74c0,1.57-1.28,2.85-2.85,2.85h-7.7c-1.56,0-2.84,1.26-2.85,2.82Z"/>
  <path class="cls-3" d="m237.42,411.02l.06,90.29c.02,1.56-1.25,2.84-2.82,2.85,0,0-.02,0-.03,0h-12.83c-1.57,0-2.85-1.28-2.85-2.85l-.09-139.7c0-1.57,1.26-2.85,2.82-2.85h13c1.57,0,2.85,1.28,2.85,2.85v24.8c0,1.57,1.27,2.85,2.85,2.85.05,0,.1,0,.15,0,23.01-1.2,31.13,12.72,31.13,33.67,0,26.13,0,52.26-.03,78.37,0,1.57-1.28,2.85-2.85,2.85h-13.46c-1.57,0-2.85-1.28-2.85-2.85-.08-27.2-.09-54.39-.03-81.57.03-8.72-4.02-13.63-12.83-11.49-1.28.3-2.19,1.45-2.2,2.77Z"/>
  <rect class="cls-1" x="347.96" y="365.09" width="19.22" height="18.59" rx="1.23" ry="1.23" transform="translate(-2.6 2.51) rotate(-.4)"/>
  <path class="cls-2" d="m557.77,383.06l.31-14.31.06-1.17c.09-1.52,1.36-2.7,2.88-2.68l13.6.14c1.56.02,2.82,1.29,2.82,2.85v12.69c0,1.57-1.28,2.85-2.85,2.85-.02,0-.04,0-.06,0l-16.76-.37Z"/>
  <rect class="cls-3" x="656.58" y="365.04" width="19.22" height="18.65" rx="1.05" ry="1.05" transform="translate(-3.24 5.83) rotate(-.5)"/>
  <path class="cls-1" d="m433.63,496.84c-9.43-9.1-12.68-20.19-9.75-33.24.29-1.27,1.39-2.19,2.68-2.22l12.92-.43c1.53-.05,2.83,1.12,2.94,2.65.21,2.95.26,6.98.14,12.09-.34,17.28,28.51,5.27,11.29-12.63-9.83-10.23-19.69-20.48-29.59-30.76-.53-.55-.82-1.28-.8-2.02.11-7.24-.77-15.37,1.23-21.84,8.78-28.54,50.04-24.86,52.97,3.76.13,1.43.11,5.73-.06,12.92-.03,1.55-1.3,2.79-2.85,2.79h-13.34c-1.46,0-2.69-1.12-2.82-2.59-.21-2.39-.29-4.75-.23-7.07.51-21.47-26.43-5.47-12.46,8.9,10.36,10.68,20.66,21.4,30.91,32.16.5.51.78,1.2.8,1.91.11,8.41,1.14,18.08-1.8,25.52-6.44,16.22-28.62,23.18-42.17,10.12Z"/>
  <path class="cls-2" d="m610,466.96l-.57,34.41c-.02,1.55-1.29,2.79-2.85,2.79h-13.57c-1.57,0-2.85-1.28-2.85-2.85,0,0,0-.02,0-.03l.71-94.77.17-14.26c.03-1.56,1.29-2.81,2.85-2.82l12.74-.11c1.57-.02,2.86,1.25,2.88,2.82,0,0,0,.02,0,.03v.88c0,.63.51,1.14,1.16,1.15.04,0,.08,0,.12,0,23.23-2.13,34.51,8.17,33.84,30.91-.04,1.5-1.24,2.71-2.74,2.77l-13.43.51c-1.56.06-2.89-1.14-2.97-2.71l-.4-8.67c-.05-.95-.56-1.8-1.34-2.28-9.81-6.1-14.34.11-14.37,9.52-.06,14.39.14,28.62.6,42.71Z"/>
  <path class="cls-2" d="m297.01,499.75c-14.6-9.89-11.83-22.52-11.83-37.72,0-14.4,5.87-26.89,21.38-26.43,2.66.08,4.81.07,6.44-.03,1.45-.07,2.61-1.22,2.71-2.68.46-8.38,4.3-26.8-9.86-24.78-1.37.2-2.4,1.35-2.42,2.74l-.48,15c-.05,1.54-1.31,2.77-2.85,2.77h-12.69c-1.55,0-2.82-1.24-2.85-2.79-.06-2.87-.09-5.74-.09-8.61,0-14.88,7.7-26.86,23.52-27.91,18.53-1.2,25.97,11.58,26.34,28.71.59,27.14.85,54.99.77,83.54,0,1.57-1.26,2.85-2.82,2.85-.05,0-.1,0-.14,0l-26.29-1.25c-2.74-.11-5.68-1.24-8.84-3.39Zm15.65-14.68c1.56.19,2.98-.93,3.17-2.49.01-.11.02-.22.02-.33v-24.4c0-1.57-1.28-2.85-2.85-2.85h-6.24c-1.52,0-2.77,1.19-2.85,2.71-.4,8.87-4.25,25.8,8.75,27.37Z"/>
  <rect class="cls-1" x="347.96" y="389.41" width="19.22" height="114.04" rx=".88" ry=".88"/>
  <path class="cls-1" d="m545.02,463.74c-.57,16.14,2.37,30.02-15.31,38.35-2.34,1.08-8.08,1.64-17.22,1.68-1.57.02-2.84,1.3-2.82,2.88h0s.23,29.57.23,29.57c0,1.59-1.28,2.88-2.85,2.88h-13.03c-1.57,0-2.85-1.28-2.85-2.85l-.09-143.66c0-1.52,1.19-2.78,2.71-2.85,8.67-.44,17.33-.56,26-.37,15.45.31,24.06,9.41,24.86,24.8.86,16.5.98,33.02.37,49.58Zm-19.58-52.27c0-1.53-1.23-2.77-2.76-2.77h0l-9.86-.02c-1.53,0-2.77,1.23-2.77,2.76h0l-.12,69.91c0,1.53,1.23,2.77,2.76,2.77h0l9.86.02c1.53,0,2.77-1.23,2.77-2.76h0l.12-69.91Z"/>
  <path class="cls-2" d="m577.55,397.97l-.11,102.64c0,1.57-1.28,2.85-2.85,2.85h-13.57c-1.57,0-2.85-1.28-2.85-2.85l-.14-109.31c5.4-2,11-2.7,16.79-2.11,1.42.14,2.52,1.32,2.57,2.77l.17,6.02Z"/>
  <path class="cls-3" d="m668.67,503.57l-12-.83-.06-110.48c0-1.57,1.28-2.85,2.85-2.85h13.49c1.57,0,2.85,1.28,2.85,2.85v108.28c0,1.54-1.21,2.8-2.74,2.85l-4.39.17Z"/>
  <path class="cls-5" d="m690.94,625.11l-5.87-1.31c2-.91.93-2.61-3.19-5.1-.42-.25-.86-.38-1.34-.4-42.31-2.31-61.81,34.38-80.88,64.78-.65-1.52-1.87-2.03-3.68-1.54,14.8-25.55,35.44-59.7,66.23-66.34,10.99-2.36,21.26-.79,30.82,4.7.48.28,1.04.41,1.6.37,16.94-.91,35.67-1.25,42.2,17.42,11.12,31.9-12.8,58.67-39.34,71.16-.77.37-1.68.27-2.37-.26-1.5-1.16-1.68-2.7-.54-4.62,7.37-12.3,11.85-23.95,13.43-34.95,2.66-18.47-3.02-33.11-17.05-43.91Zm32.07,2.91c-5.38-3.84-11.72-5.24-19.02-4.19-1.55.21-2.62,1.64-2.4,3.2.05.38.18.74.38,1.07,13.3,22.39,13.97,44.88,2,67.48-2.87,5.42-1.77,6.41,3.31,2.97,8.25-5.63,15.38-12.84,21.38-21.64,10.38-15.22,10.38-37.49-5.65-48.9Z"/>
  <path class="cls-5" d="m252.42,623.8l-1.43,3.56c-10.3-6.82-21.32-9.6-33.04-8.32-5.7.61-6.08,2.37-1.14,5.27,15.07,8.88,27.39,20.94,36.95,36.18-2.6.72-3.56,2.07-2.88,4.05-12.83-18.42-23.66-33.07-45.56-39.86-.89-.27-1.87-.09-2.62.48-24.32,19.22-17.88,57.05-2,79.06,1.12,1.56.91,2.69-.63,3.39-.62.29-1.32.29-1.91,0-26.12-11.97-52.37-40.06-40.54-70.85,10.21-26.57,32.82-13.6,51.55-19.64,15.26-4.9,29.68-2.68,43.25,6.67Zm-67.28,71.28c5.38,4.35,6.54,3.42,3.48-2.79-7.47-15.09-8.3-32.18-2.48-51.26,1.43-4.68,4.12-9.24,8.1-13.68,2.28-2.57,1.73-4.13-1.65-4.7-5.68-.97-11.07-.5-16.17,1.4-19.93,7.41-21.47,33.1-11.75,48.87,4.66,7.53,11.48,14.92,20.47,22.18Z"/>
  <path class="cls-2" d="m252.42,623.8c28,19.44,39.49,53.68,62.21,78.37,3.63,3.95,7.21,7.89,10.75,11.8,1.05,1.17,2.85,1.27,4.01.23.15-.14.29-.29.41-.46,6.03-8.34,6.77-17.11,2.22-26.29-2.07-4.22-.89-5.53,3.54-3.93,4.98,1.79,10.56,4.18,16.74,7.18,24.03,11.72,5.62,46.98-22.18,31.33-.88-.51-1.97-.5-2.85.03-36.21,21.38-62.01-35.35-76.38-57.53-.68-1.98.28-3.33,2.88-4.05,8.04,17.25,32.9,57.68,53.11,61.04,4.35.72,8.64.32,12.86-1.2,1.48-.54,2.24-2.18,1.7-3.66-.13-.37-.34-.71-.62-.99-12.62-13.3-23.61-27.76-32.96-43.36-8.5-14.2-22.95-35.95-36.86-44.96l1.43-3.56Zm82,96.02c10.57,4.3,19.51,1.33,26.83-8.9.61-.84.71-1.95.26-2.88-4.24-8.97-10.62-15.19-19.13-18.65-3.31-1.35-4.59-.27-3.85,3.25,1.77,8.36,0,15.96-5.3,22.78-.96,1.25-.73,3.04.51,4,.21.16.44.29.68.39Z"/>
  <path class="cls-2" d="m685.06,623.8l5.87,1.31c-28.88,10.32-44.73,35.24-58.59,60.24-12.34,22.3-35.58,53.11-65.15,37.49-.76-.4-1.66-.44-2.45-.11-29.51,12.4-48.27-19.19-18.87-34.3,4.43-2.28,9.17-3.62,14.23-4.02,3.46-.29,4.37,1.1,2.74,4.16-4.49,8.48-4.17,16.99.94,25.55.8,1.36,2.54,1.81,3.9,1.02.19-.11.36-.24.52-.39,10.28-9.79,19.54-20.86,27.77-33.21,1.81-.49,3.03.02,3.68,1.54-7.6,12.32-16.89,23.53-27.85,33.64-1.16,1.07-1.23,2.87-.16,4.03.32.35.72.61,1.16.76,19.76,6.7,32.59-6.96,44.33-21.27,21.47-26.23,31.93-66.31,67.94-76.44Zm-143.15,94.57c5.61,3.1,11.39,3.66,17.33,1.68,1.49-.5,2.29-2.12,1.79-3.61-.09-.26-.21-.5-.36-.72-4.96-7.2-6.22-14.98-3.76-23.32,1.06-3.65-.18-4.81-3.73-3.48-4.73,1.77-8.82,4.32-12.26,7.67-7.38,7.1-9.61,15.88,1,21.78Z"/>
  <path class="cls-3" d="m89.91,663.71c35.28,56.07,80.66,102.16,136.14,138.27-2.93.48-3.88,2.38-2.85,5.7-56.45-35.79-102.34-82.08-137.68-138.87l-.09-2.54c-.06-1.57,1.16-2.9,2.74-2.96.34-.01.68.03,1,.14l.74.26Z"/>
  <path class="cls-3" d="m288.89,753.63l-.83,2.74c-6.47-3.31-41.94-23.26-40.8-26.6.22-.61.89-.92,1.5-.7.07.03.15.06.21.1l39.91,24.46Z"/>
  <path class="cls-3" d="m473.38,794.14c-1.39-3.04-4.24-3.99-8.55-2.85,42.21-2.49,82.07-11.3,119.57-26.43,1.46-.59,1.87-1.25,1.23-2-.23-.28-.58-.4-.91-.31-33.83,8.12-66.7,5.62-98.62-7.5l.94-2.85c31.06,11.44,62.51,14.33,94.37,8.67,23.75-4.22,45.84-17.76,65.83-31.48,1.63-1.12,2.58-1.07,2.82.14.12.67-.12,1.35-.63,1.77-6.16,5.06-11.3,8.81-15.42,11.26-46.96,27.88-105.49,50.12-160.63,51.58Z"/>
  <path class="cls-1" d="m487.03,752.21l-.94,2.85c-13.25-4.54-25.37-10.77-36.38-18.67-.96-.7-2.26-.71-3.25-.03-36.15,24.69-75.88,34.62-119.2,29.79-10.7-1.2-10.97-.02-.8,3.54,46.49,16.23,92.61,23.44,138.36,21.61,4.31-1.14,7.17-.19,8.55,2.85-65.67,5.45-127.44-7.14-185.32-37.78l.83-2.74c56.43,18.17,108.85,10.93,157.26-21.72.95-.66,2.2-.67,3.16-.03,11.96,7.91,24.53,14.68,37.72,20.33Z"/>
  <path class="cls-3" d="m789.95,733.67c-36.84,45.43-81.26,81.54-133.29,108.34.4-6.53-6.33-.4-9.38-1.54,52.67-26.97,98.05-63.08,136.14-108.34,2.79-1.29,4.97-.78,6.53,1.54Z"/>
  <path class="cls-3" d="m750.04,745.08c-25.81,26.32-54.6,48.86-86.36,67.6l-3.68-4.88c30.98-19.01,59.29-41.38,84.93-67.11,3.21-1.06,4.91.4,5.1,4.39Z"/>
  <path class="cls-2" d="m718.68,745.08c-49.36,45.41-106.66,76.26-171.89,92.54l-2.85-5.47c63.48-16.29,119.79-46.06,168.92-89.32,4.92-2.76,6.86-2.01,5.82,2.25Z"/>
  <path class="cls-2" d="m196.83,754.23c63.73,52.21,136.91,81.67,219.53,88.38-6.41-1.67-9.73.23-9.98,5.7-80.63-8.63-152.14-38.56-214.54-89.81l4.99-4.28Z"/>
  <path class="cls-2" d="m134.1,757.08c71.77,71.75,158.25,114.35,259.44,127.81l-1.43,6.19-22.81-3.34c-92.92-16.99-172.55-58.85-238.89-125.56-.17-2.6,1.05-4.31,3.68-5.1Z"/>
  <path class="cls-1" d="m226.05,801.98c133.66,82.14,298.16,83.68,433.95,5.82l3.68,4.88c-136.74,80.26-305.54,79.14-440.48-4.99-1.03-3.33-.08-5.23,2.85-5.7Z"/>
  <path class="cls-1" d="m543.94,832.15l2.85,5.47c-46.09,12.3-92.9,15.86-140.41,10.69.25-5.47,3.57-7.37,9.98-5.7,43.11,3.12,85.64-.37,127.58-10.46Z"/>
  <path class="cls-1" d="m656.67,842.01c-82.64,44.06-170.82,60.41-264.55,49.07l1.43-6.19c89.33,10.23,173.91-4.58,253.74-44.42,3.05,1.14,9.78-4.99,9.38,1.54Z"/>
</svg>